<?xml version="1.0" encoding="UTF-8" standalone="no"?>
<!DOCTYPE svg PUBLIC "-//W3C//DTD SVG 1.1//EN" "http://www.w3.org/Graphics/SVG/1.1/DTD/svg11.dtd">
<svg version="1.1" xmlns="http://www.w3.org/2000/svg" xmlns:xlink="http://www.w3.org/1999/xlink" preserveAspectRatio="xMidYMid meet" viewBox="0 0 400 400" width="400" height="400"><defs><path d="M203.01 348.25C203.07 309.58 148.59 230.96 100.84 156.1C143.33 221.68 174.16 240.93 205.33 315.5C188.1 243.54 164.13 197.76 134.65 129.45C138.66 126.49 225.93 321.83 223.04 314.79C230.17 296.99 161.8 89.14 161.8 89.14C186.29 155.64 209.92 216.24 223.92 280.63C222.78 210.58 222.34 140.79 215.62 68.78C220.89 133.96 222.91 201.29 236.5 262.54C249.61 191.21 253.99 108.35 261.77 31.23C259.94 58.61 245.27 277.67 243.43 305.05C251 240.41 272.73 137.28 285.9 70.58C277.77 137.13 257.55 204.69 262.02 270.18C274.93 188.91 317.88 141.86 345.93 77.84C318.72 148.18 281.02 190.23 264.52 289.5C300.98 208.52 347.21 184.95 394.85 137.71C278.61 265.1 268.42 288.33 256.57 322.53C251.93 335.89 350.38 198.73 378.93 203.76C334.9 232.13 298.5 287.94 261 345.71C292.52 316.28 323.87 285.14 356.73 268.8C322.44 289.03 291.83 325.11 260.91 359.89C260 359.43 255.47 357.13 247.31 352.98L230.29 347.89L215.31 352.58C208.75 350.27 204.65 348.83 203.01 348.25Z" id="atCgZ6OnU"></path><path d="M173.59 372.12C157.87 338.01 77.78 298.45 5.15 258.54C69.36 293.15 104.39 293.27 162.28 341.99C117.74 287.96 77.95 260.71 24.09 216.58C26.43 211.77 183.03 336.32 177.61 331.69C176.64 312.11 31.6 166.21 31.6 166.21C80.3 211.46 125.85 251.98 164.45 301.1C134.88 239.97 106.03 178.68 70.73 118.86C101.97 173.45 131.2 231.69 168.16 278.28C150.63 208.23 120.7 132.79 96.11 60.55C105.66 85.69 182.06 286.82 191.61 311.96C171.92 250.85 149.02 148.06 133.44 82.06C153.41 145.17 163.13 215.77 193.78 271.07C172.02 192.38 190.69 127.43 189.31 55.67C194.01 132.55 177.92 190.21 203.86 286.74C202.97 195.43 234.12 149.4 256.86 81.73C206.33 257.53 206.82 283.58 210.32 320.2C211.68 334.51 242.54 159.82 269.76 148.65C242.51 197.72 233.19 266.81 223.68 338.21C239.47 295.05 254.41 250.47 276.71 218.12C254.73 254.68 242.45 303.21 229.38 350.77C228.39 350.86 223.46 351.3 214.58 352.1L197.5 356.91L186.2 369.23C179.48 370.77 175.28 371.74 173.59 372.12Z" id="a2axikOrhJ"></path></defs><g><g><g><use xlink:href="#atCgZ6OnU" opacity="1" fill="#6b8e23" fill-opacity="1"></use><g><use xlink:href="#atCgZ6OnU" opacity="1" fill-opacity="0" stroke="#000000" stroke-width="0.5" stroke-opacity="1"></use></g></g><g><use xlink:href="#a2axikOrhJ" opacity="1" fill="#95cc2f" fill-opacity="1"></use><g><use xlink:href="#a2axikOrhJ" opacity="1" fill-opacity="0" stroke="#000000" stroke-width="0.5" stroke-opacity="1"></use></g></g></g></g></svg>